<?xml version="1.0" encoding="UTF-8" standalone="no"?>
<!DOCTYPE svg PUBLIC "-//W3C//DTD SVG 1.1//EN"
 "http://www.w3.org/Graphics/SVG/1.1/DTD/svg11.dtd">
<!-- Generated by graphviz version 2.34.0 (20130907.0228)
 -->
<!-- Title: %3 Pages: 1 -->
<svg width="1153pt" height="268pt"
 viewBox="0.00 0.00 1153.00 268.00" xmlns="http://www.w3.org/2000/svg" xmlns:xlink="http://www.w3.org/1999/xlink">
<g id="graph0" class="graph" transform="scale(1 1) rotate(0) translate(4 264)">
<title>%3</title>
<polygon fill="white" stroke="white" points="-4,4 -4,-264 1149,-264 1149,4 -4,4"/>
<!-- org_liveSense_service_jcr_importexport -->
<g id="node1" class="node"><title>org_liveSense_service_jcr_importexport</title>
<polygon fill="yellow" stroke="black" points="447,-223 447,-259 653,-259 653,-223 447,-223"/>
<text text-anchor="middle" x="550" y="-248.1" font-family="Arial" font-size="8.00">liveSense :: Webconsole :: jackrabbit Import/Export</text>
<polyline fill="none" stroke="black" points="447,-241 653,-241 "/>
<text text-anchor="middle" x="550" y="-230.1" font-family="Arial" font-size="8.00">org.liveSense.service.jcr.importexport(2&#45;SNAPSHOT)</text>
</g>
<!-- javax_jcr -->
<g id="node2" class="node"><title>javax_jcr</title>
<polygon fill="green" stroke="black" points="164,-149 164,-185 350,-185 350,-149 164,-149"/>
<text text-anchor="middle" x="257" y="-174.1" font-family="Arial" font-size="8.00">Content Repository for JavaTM Technology API</text>
<polyline fill="none" stroke="black" points="164,-167 350,-167 "/>
<text text-anchor="middle" x="257" y="-156.1" font-family="Arial" font-size="8.00">javax.jcr(2.0)</text>
</g>
<!-- org_liveSense_service_jcr_importexport&#45;&gt;javax_jcr -->
<g id="edge1" class="edge"><title>org_liveSense_service_jcr_importexport&#45;&gt;javax_jcr</title>
<path fill="none" stroke="yellow" d="M480.563,-222.937C437.128,-212.264 381.059,-198.485 335.938,-187.398"/>
<polygon fill="yellow" stroke="yellow" points="336.738,-183.99 326.192,-185.003 335.068,-190.788 336.738,-183.99"/>
</g>
<!-- org_apache_sling_jcr_api -->
<g id="node3" class="node"><title>org_apache_sling_jcr_api</title>
<polygon fill="green" stroke="black" points="0,-149 0,-185 146,-185 146,-149 0,-149"/>
<text text-anchor="middle" x="73" y="-174.1" font-family="Arial" font-size="8.00">Apache Sling Repository API Bundle</text>
<polyline fill="none" stroke="black" points="0,-167 146,-167 "/>
<text text-anchor="middle" x="73" y="-156.1" font-family="Arial" font-size="8.00">org.apache.sling.jcr.api(2.1.0)</text>
</g>
<!-- org_liveSense_service_jcr_importexport&#45;&gt;org_apache_sling_jcr_api -->
<g id="edge2" class="edge"><title>org_liveSense_service_jcr_importexport&#45;&gt;org_apache_sling_jcr_api</title>
<path fill="none" stroke="yellow" d="M446.931,-228.207C369.515,-218.812 260.694,-204.47 156.343,-186.17"/>
<polygon fill="yellow" stroke="yellow" points="156.716,-182.682 146.26,-184.386 155.497,-189.575 156.716,-182.682"/>
</g>
<!-- org_apache_sling_commons_osgi -->
<g id="node4" class="node"><title>org_apache_sling_commons_osgi</title>
<polygon fill="green" stroke="black" points="368.5,-149 368.5,-185 521.5,-185 521.5,-149 368.5,-149"/>
<text text-anchor="middle" x="445" y="-174.1" font-family="Arial" font-size="8.00">Apache Sling Commons OSGi support</text>
<polyline fill="none" stroke="black" points="368.5,-167 521.5,-167 "/>
<text text-anchor="middle" x="445" y="-156.1" font-family="Arial" font-size="8.00">org.apache.sling.commons.osgi(2.2.0)</text>
</g>
<!-- org_liveSense_service_jcr_importexport&#45;&gt;org_apache_sling_commons_osgi -->
<g id="edge3" class="edge"><title>org_liveSense_service_jcr_importexport&#45;&gt;org_apache_sling_commons_osgi</title>
<path fill="none" stroke="yellow" d="M525.116,-222.937C511.226,-213.412 493.73,-201.415 478.634,-191.063"/>
<polygon fill="yellow" stroke="yellow" points="480.295,-187.959 470.069,-185.19 476.337,-193.732 480.295,-187.959"/>
</g>
<!-- org_apache_geronimo_specs_geronimo_servlet_3_0_spec -->
<g id="node5" class="node"><title>org_apache_geronimo_specs_geronimo_servlet_3_0_spec</title>
<polygon fill="green" stroke="black" points="540,-149 540,-185 770,-185 770,-149 540,-149"/>
<text text-anchor="middle" x="655" y="-174.1" font-family="Arial" font-size="8.00">Servlet 3.0</text>
<polyline fill="none" stroke="black" points="540,-167 770,-167 "/>
<text text-anchor="middle" x="655" y="-156.1" font-family="Arial" font-size="8.00">org.apache.geronimo.specs.geronimo&#45;servlet_3.0_spec(1.0)</text>
</g>
<!-- org_liveSense_service_jcr_importexport&#45;&gt;org_apache_geronimo_specs_geronimo_servlet_3_0_spec -->
<g id="edge4" class="edge"><title>org_liveSense_service_jcr_importexport&#45;&gt;org_apache_geronimo_specs_geronimo_servlet_3_0_spec</title>
<path fill="none" stroke="yellow" d="M574.884,-222.937C588.774,-213.412 606.27,-201.415 621.366,-191.063"/>
<polygon fill="yellow" stroke="yellow" points="623.663,-193.732 629.931,-185.19 619.705,-187.959 623.663,-193.732"/>
</g>
<!-- org_apache_felix_configadmin -->
<g id="node6" class="node"><title>org_apache_felix_configadmin</title>
<polygon fill="green" stroke="black" points="788,-149 788,-185 954,-185 954,-149 788,-149"/>
<text text-anchor="middle" x="871" y="-174.1" font-family="Arial" font-size="8.00">Apache Felix Configuration Admin Service</text>
<polyline fill="none" stroke="black" points="788,-167 954,-167 "/>
<text text-anchor="middle" x="871" y="-156.1" font-family="Arial" font-size="8.00">org.apache.felix.configadmin(1.6.0)</text>
</g>
<!-- org_liveSense_service_jcr_importexport&#45;&gt;org_apache_felix_configadmin -->
<g id="edge5" class="edge"><title>org_liveSense_service_jcr_importexport&#45;&gt;org_apache_felix_configadmin</title>
<path fill="none" stroke="yellow" d="M626.073,-222.937C673.858,-212.219 735.601,-198.37 785.14,-187.258"/>
<polygon fill="yellow" stroke="yellow" points="786.204,-190.607 795.196,-185.003 784.672,-183.776 786.204,-190.607"/>
</g>
<!-- org_ops4j_pax_logging_pax_logging_api -->
<g id="node7" class="node"><title>org_ops4j_pax_logging_pax_logging_api</title>
<polygon fill="green" stroke="black" points="972.5,-149 972.5,-185 1145.5,-185 1145.5,-149 972.5,-149"/>
<text text-anchor="middle" x="1059" y="-174.1" font-family="Arial" font-size="8.00">OPS4J Pax Logging &#45; API</text>
<polyline fill="none" stroke="black" points="972.5,-167 1145.5,-167 "/>
<text text-anchor="middle" x="1059" y="-156.1" font-family="Arial" font-size="8.00">org.ops4j.pax.logging.pax&#45;logging&#45;api(1.7.0)</text>
</g>
<!-- org_liveSense_service_jcr_importexport&#45;&gt;org_ops4j_pax_logging_pax_logging_api -->
<g id="edge6" class="edge"><title>org_liveSense_service_jcr_importexport&#45;&gt;org_ops4j_pax_logging_pax_logging_api</title>
<path fill="none" stroke="yellow" d="M653.338,-228.097C734.564,-218.365 850.794,-203.615 962.345,-186.057"/>
<polygon fill="yellow" stroke="yellow" points="963.102,-189.481 972.431,-184.46 962.007,-182.567 963.102,-189.481"/>
</g>
<!-- org_apache_sling_jcr_api&#45;&gt;javax_jcr -->
<g id="edge7" class="edge"><title>org_apache_sling_jcr_api&#45;&gt;javax_jcr</title>
<path fill="none" stroke="green" d="M146.312,-167C148.655,-167 150.997,-167 153.339,-167"/>
<polygon fill="green" stroke="green" points="153.607,-170.5 163.607,-167 153.607,-163.5 153.607,-170.5"/>
</g>
<!-- org_apache_felix_eventadmin -->
<g id="node8" class="node"><title>org_apache_felix_eventadmin</title>
<polygon fill="#3182bd" stroke="black" points="891,-75 891,-111 1031,-111 1031,-75 891,-75"/>
<text text-anchor="middle" x="961" y="-100.1" font-family="Arial" font-size="8.00">Apache Felix EventAdmin</text>
<polyline fill="none" stroke="black" points="891,-93 1031,-93 "/>
<text text-anchor="middle" x="961" y="-82.1" font-family="Arial" font-size="8.00">org.apache.felix.eventadmin(1.3.2)</text>
</g>
<!-- org_apache_sling_commons_osgi&#45;&gt;org_apache_felix_eventadmin -->
<g id="edge8" class="edge"><title>org_apache_sling_commons_osgi&#45;&gt;org_apache_felix_eventadmin</title>
<path fill="none" stroke="green" d="M521.836,-149.595C524.927,-149.037 527.991,-148.503 531,-148 652.351,-127.715 794.124,-111.312 880.713,-102.108"/>
<polygon fill="green" stroke="green" points="881.158,-105.58 890.734,-101.048 880.422,-98.6189 881.158,-105.58"/>
</g>
<!-- org_apache_felix_configadmin&#45;&gt;org_ops4j_pax_logging_pax_logging_api -->
<g id="edge13" class="edge"><title>org_apache_felix_configadmin&#45;&gt;org_ops4j_pax_logging_pax_logging_api</title>
<path fill="none" stroke="#9ecae1" d="M954.352,-167C956.975,-167 959.598,-167 962.221,-167"/>
<polygon fill="#9ecae1" stroke="#9ecae1" points="962.338,-170.5 972.338,-167 962.338,-163.5 962.338,-170.5"/>
</g>
<!-- org_ops4j_pax_logging_pax_logging_api&#45;&gt;org_apache_felix_eventadmin -->
<g id="edge12" class="edge"><title>org_ops4j_pax_logging_pax_logging_api&#45;&gt;org_apache_felix_eventadmin</title>
<path fill="none" stroke="#9ecae1" d="M1029.94,-148.937C1016.09,-139.501 999.77,-127.639 986.422,-117.354"/>
<polygon fill="#9ecae1" stroke="#9ecae1" points="988.577,-114.596 978.544,-111.19 984.263,-120.109 988.577,-114.596"/>
</g>
<!-- org_apache_felix_eventadmin&#45;&gt;org_apache_felix_configadmin -->
<g id="edge10" class="edge"><title>org_apache_felix_eventadmin&#45;&gt;org_apache_felix_configadmin</title>
<path fill="none" stroke="#3182bd" d="M939.512,-111.19C927.802,-120.558 913.138,-132.29 900.384,-142.493"/>
<polygon fill="#3182bd" stroke="#3182bd" points="897.951,-139.957 892.329,-148.937 902.324,-145.423 897.951,-139.957"/>
</g>
<!-- org_apache_felix_eventadmin&#45;&gt;org_ops4j_pax_logging_pax_logging_api -->
<g id="edge9" class="edge"><title>org_apache_felix_eventadmin&#45;&gt;org_ops4j_pax_logging_pax_logging_api</title>
<path fill="none" stroke="#3182bd" d="M990.251,-111.19C1003.99,-120.558 1020.13,-132.29 1033.38,-142.493"/>
<polygon fill="#3182bd" stroke="#3182bd" points="1031.58,-145.531 1041.62,-148.937 1035.9,-140.018 1031.58,-145.531"/>
</g>
<!-- org_apache_felix_metatype -->
<g id="node9" class="node"><title>org_apache_felix_metatype</title>
<polygon fill="#9ecae1" stroke="black" points="944.5,-1 944.5,-37 1075.5,-37 1075.5,-1 944.5,-1"/>
<text text-anchor="middle" x="1010" y="-26.1" font-family="Arial" font-size="8.00">Apache Felix Metatype Service</text>
<polyline fill="none" stroke="black" points="944.5,-19 1075.5,-19 "/>
<text text-anchor="middle" x="1010" y="-8.1" font-family="Arial" font-size="8.00">org.apache.felix.metatype(1.0.6)</text>
</g>
<!-- org_apache_felix_eventadmin&#45;&gt;org_apache_felix_metatype -->
<g id="edge11" class="edge"><title>org_apache_felix_eventadmin&#45;&gt;org_apache_felix_metatype</title>
<path fill="none" stroke="#3182bd" d="M972.612,-74.937C978.506,-66.277 985.791,-55.5731 992.36,-45.9207"/>
<polygon fill="#3182bd" stroke="#3182bd" points="995.398,-47.677 998.131,-37.4407 989.611,-43.7386 995.398,-47.677"/>
</g>
<!-- org_apache_felix_metatype&#45;&gt;org_ops4j_pax_logging_pax_logging_api -->
<g id="edge14" class="edge"><title>org_apache_felix_metatype&#45;&gt;org_ops4j_pax_logging_pax_logging_api</title>
<path fill="none" stroke="#9ecae1" d="M1021.42,-37.3477C1027.72,-47.6303 1035.22,-61.1303 1040,-74 1047.83,-95.0897 1052.74,-120.161 1055.6,-138.8"/>
<polygon fill="#9ecae1" stroke="#9ecae1" points="1052.17,-139.551 1057.05,-148.953 1059.1,-138.558 1052.17,-139.551"/>
</g>
</g>
</svg>
